<svg xmlns="http://www.w3.org/2000/svg">


  <symbol id="logo" viewBox="0 0 217 57" >
    <svg width="217" height="57" fill="none" xmlns="http://www.w3.org/2000/svg">
      <path d="M48.0305 56.3837H8.35314C3.72259 56.3837 0 52.6611 0 48.0305V8.35315C0 3.72261 3.72259 0 8.35314 0H48.0305C52.6611 0 56.3837 3.72261 56.3837 8.35315V48.0305C56.3837 52.6611 52.5703 56.3837 48.0305 56.3837Z" fill="#231815"/>
      <path d="M27.7833 18.2499C27.7833 18.2499 33.3217 14.8905 36.6812 12.9838C40.0406 11.0771 41.9473 10.4415 43.854 10.26C45.7607 10.1692 47.9397 11.1679 47.9397 11.1679L41.8565 7.35451C41.8565 7.35451 41.0393 6.80974 38.7694 7.08213C36.4996 7.35451 35.3192 7.99008 33.8665 8.71644C32.4138 9.53359 22.6987 15.2537 22.6987 15.2537L27.7833 18.2499Z" fill="#fff"/>
      <path d="M42.3103 15.7075C42.3103 15.7075 45.125 19.6117 42.9459 26.5121C40.7668 33.4125 35.6823 37.3167 35.3191 37.5891C35.0467 37.8615 31.8689 39.6774 31.8689 39.6774L31.9597 45.1251C31.9597 45.1251 42.1287 41.5841 46.3961 31.7782C50.2095 23.1527 47.758 18.5221 45.8513 16.5247C44.7618 15.3443 42.3103 15.7075 42.3103 15.7075Z" fill="#fff"/>
      <path d="M27.7833 45.0343L22.6987 42.0381V15.3444L27.7833 18.2498V45.0343Z" fill="#fff"/>
      <path d="M12.2571 37.226L7.17261 34.1389V7.53601L12.1663 10.3507L12.2571 37.226Z" fill="#fff"/>
      <path d="M7.17268 34.139C7.17268 34.139 5.90155 45.3976 15.0718 49.4834C20.338 51.8441 24.2421 50.4821 26.058 48.6662C27.5107 47.2135 27.6923 45.0344 27.6923 45.0344L22.6078 41.9474C22.6078 41.9474 22.6078 43.037 21.7907 43.8541C20.8827 44.8529 19.43 45.8516 16.1614 44.2173C11.9848 42.0382 12.1664 37.2261 12.1664 37.2261L7.17268 34.139Z" fill="#fff"/>
      <path d="M12.1666 10.3506L16.2523 8.26236L11.6218 5.72009L7.17285 7.53599L12.1666 10.3506Z" fill="#fff"/>
      <path d="M211.916 43.4908H213.913V43.9448H213.096V46.0331H212.642V43.9448H211.825L211.916 43.4908Z" fill="#231815"/>
      <path d="M214.276 43.4908H214.821L215.638 45.1252L216.455 43.4908H217V46.0331H216.546V44.2172L215.729 45.7607H215.456L214.639 44.2172V46.0331H214.276V43.4908Z" fill="#231815"/>
      <path d="M209.192 43.6724C209.192 44.5804 209.192 45.3067 209.192 46.2147C205.469 46.2147 201.746 46.2147 198.115 46.2147C195.391 46.2147 195.391 46.2147 195.391 48.8478C195.391 52.7519 195.391 52.7519 199.204 52.7519C201.202 52.7519 203.199 52.6611 205.106 52.7519C206.559 52.8427 207.013 52.298 206.831 50.936C206.74 50.1189 206.831 49.2109 206.831 48.2122C207.739 48.2122 208.556 48.2122 209.646 48.2122C209.646 49.7557 209.736 51.2084 209.646 52.7519C209.555 54.2954 208.556 55.2034 207.103 55.2942C203.108 55.385 199.204 55.385 195.209 55.2942C193.393 55.2942 192.485 54.1139 192.485 52.298C192.485 50.4821 192.485 48.5754 192.485 46.7595C192.485 44.762 193.393 43.7632 195.3 43.6724C199.931 43.5816 204.47 43.6724 209.192 43.6724Z" fill="#231815"/>
      <path d="M68.4595 24.4238H71.2742V33.1401C71.2742 33.3217 71.4558 33.5033 71.6374 33.5033H82.6236C82.8052 33.5033 82.9867 33.3217 82.9867 33.1401V24.4238H85.8922C85.8922 27.6017 85.983 30.6887 85.8922 33.7757C85.8922 35.2284 84.8934 36.1364 83.5315 36.1364C79.1734 36.2272 75.2692 36.2272 70.8202 36.1364C69.3675 36.1364 68.4595 35.1376 68.4595 33.5941C68.3687 30.5979 68.4595 27.5109 68.4595 24.4238Z" fill="#231815"/>
      <path d="M131.834 43.6724H134.649V52.2071C134.649 52.3887 134.831 52.5703 135.012 52.5703H147.724V55.2033C147.724 55.2033 135.194 55.2033 135.103 55.2033C132.561 55.2033 131.744 54.2046 131.744 51.9347C131.834 49.4832 131.834 46.3962 131.834 43.6724Z" fill="#231815"/>
      <path d="M168.425 43.7633C169.333 43.7633 170.059 43.7633 171.058 43.7633C171.058 47.5767 171.058 51.3901 171.058 55.2943C170.241 55.2943 169.424 55.2943 168.425 55.2943C168.425 51.3901 168.425 47.6675 168.425 43.7633Z" fill="#231815"/>
      <path d="M125.751 30.0532C125.751 30.0532 126.205 29.3268 126.205 28.9637C126.75 26.7846 125.933 24.5147 123.754 24.4239C118.851 24.2423 113.948 24.3331 108.863 24.3331C108.863 28.2373 108.863 32.0507 108.863 36.0457C113.494 36.0457 118.034 36.0457 122.573 36.0457C126.114 36.0457 126.659 33.4126 126.114 30.9612C126.114 30.6888 125.751 30.0532 125.751 30.0532ZM122.755 33.4126L111.95 33.5034V31.3243C111.95 31.3243 120.757 31.3243 122.755 31.3243C122.937 31.3243 123.118 31.5059 123.118 31.6875V33.0494C123.118 33.231 122.937 33.4126 122.755 33.4126ZM122.755 29.1453L111.95 29.2361V27.057C111.95 27.057 120.757 27.057 122.755 27.057C122.937 27.057 123.118 27.2386 123.118 27.4202V28.7821C123.118 28.9637 122.937 29.1453 122.755 29.1453Z" fill="#231815"/>
      <path d="M141.549 26.6029C140.641 24.787 139.28 24.4238 137.464 24.4238C135.557 24.4238 134.286 24.787 133.378 26.6029C133.378 26.6029 129.928 32.777 127.93 36.1364H131.471L136.374 27.2385C136.465 27.1477 136.556 27.0569 136.737 27.0569H138.372C138.462 27.0569 138.644 27.1477 138.735 27.2385L143.638 36.1364C143.638 36.1364 146.271 36.1364 147.179 36.1364C145 32.777 141.459 26.6029 141.549 26.6029Z" fill="#231815"/>
      <path d="M165.701 24.4239H162.705C162.705 27.3294 162.705 30.2348 162.705 33.5034C162.705 33.5034 162.251 33.5942 161.615 33.0495C160.072 31.5967 156.621 27.4202 156.167 26.9662C156.167 26.9662 156.167 26.8754 156.077 26.8754C155.804 26.5122 155.532 26.2398 155.441 26.149C154.352 25.0595 153.716 24.5147 151.718 24.3331H149.085C149.085 27.8741 149.085 32.5047 149.085 36.0457H152.082C152.082 33.1403 152.082 30.2348 152.082 26.9662C152.082 26.9662 152.536 26.8754 153.171 27.4202C154.715 28.8729 158.165 33.0495 158.619 33.5034C158.619 33.5034 158.619 33.5942 158.71 33.5942C158.982 33.9574 159.254 34.2298 159.345 34.3206C160.435 35.4101 161.07 35.9549 163.068 36.1365H165.701C165.701 32.5955 165.701 27.9649 165.701 24.4239Z" fill="#231815"/>
      <path d="M85.8012 45.9424C85.8012 44.5805 84.8025 43.7633 83.259 43.7633C81.6247 43.7633 79.8996 43.7633 78.2652 43.7633C74.9058 43.7633 71.5464 43.7633 68.187 43.7633C68.187 47.6675 68.187 51.3901 68.187 55.2943C71.4556 55.2943 74.5427 55.2943 77.6297 55.2943C79.5364 55.2943 81.4431 55.2943 83.259 55.2943C84.7117 55.2943 85.7104 54.3863 85.8012 53.1152C85.8012 52.5704 85.8012 46.4871 85.8012 45.9424ZM82.9866 47.4859V51.5717V52.3888C82.9866 52.5704 82.805 52.752 82.6234 52.752H71.3648C71.1832 52.752 71.0016 52.5704 71.0016 52.3888V46.7595C71.0016 46.5779 71.1832 46.3964 71.3648 46.3964H82.805C82.9866 46.3964 82.9866 46.5779 82.9866 46.7595V47.4859Z" fill="#231815"/>
      <path d="M190.125 43.6723H187.129C187.129 46.5778 187.129 49.4832 187.129 52.7518C187.129 52.7518 186.675 52.8426 186.039 52.2979C184.495 50.8451 181.045 46.6686 180.591 46.2146C180.591 46.2146 180.591 46.2146 180.5 46.1238C180.228 45.7606 179.956 45.4882 179.865 45.3974C178.775 44.3079 178.14 43.7631 176.142 43.5815H173.509C173.509 47.1225 173.509 51.7531 173.509 55.2941H176.506C176.506 52.3887 176.506 49.4832 176.506 46.2146C176.506 46.2146 176.959 46.1238 177.595 46.6686C179.139 48.1213 182.589 52.2979 183.043 52.7518C183.043 52.7518 183.043 52.7518 183.134 52.8426C183.406 53.2058 183.678 53.4782 183.769 53.569C184.859 54.6585 185.494 55.2033 187.492 55.3849H190.125C190.125 51.8439 190.125 47.2133 190.125 43.6723Z" fill="#231815"/>
      <path d="M108.046 43.6724C107.592 46.1238 106.866 49.3016 106.321 51.7531C106.23 52.2979 106.049 52.6611 105.595 52.6611C105.05 52.6611 105.05 52.2979 104.778 51.7531C104.778 51.7531 102.962 46.941 102.054 44.8527C101.691 44.0355 101.146 43.6724 100.329 43.6724C99.9655 43.6724 99.6023 43.6724 99.3299 43.6724H99.2391H99.1483C98.8759 43.6724 98.5128 43.6724 98.1496 43.6724C97.3324 43.6724 96.7876 44.0355 96.4245 44.8527C95.5165 46.941 93.7006 51.7531 93.7006 51.7531C93.519 52.2979 93.4282 52.6611 92.8835 52.6611C92.4295 52.6611 92.2479 52.2979 92.1571 51.7531C91.6123 49.2109 90.9768 46.1238 90.432 43.6724C89.3425 43.6724 88.4345 43.6724 87.345 43.6724C88.0713 46.8502 88.7977 49.8464 89.4333 52.7519C89.7056 54.023 90.0688 55.2941 91.7031 55.2033C92.4295 55.2033 93.4282 55.2033 94.1546 55.2033C95.0625 55.2033 95.5165 54.5678 95.9705 53.2966L98.6036 46.3054C98.8759 45.5791 98.9667 45.4883 99.1483 45.4883C99.3299 45.4883 99.5115 45.5791 99.6931 46.3054L102.326 53.2966C102.78 54.5678 103.234 55.2033 104.142 55.2033C104.868 55.2033 105.776 55.2033 106.594 55.2033C108.228 55.2033 108.591 54.023 108.863 52.7519C109.499 49.8464 110.225 46.7594 110.952 43.6724C110.044 43.6724 109.136 43.6724 108.046 43.6724Z" fill="#231815"/>
      <path d="M128.384 48.4845H115.401C115.128 48.4845 114.947 48.3029 114.947 48.1213V46.7594C114.947 46.5778 115.128 46.3962 115.401 46.3962C117.58 46.3962 126.024 46.3962 128.384 46.3962H129.02C129.02 45.4883 129.02 44.6711 129.02 43.7632C124.026 43.7632 119.123 43.6724 114.129 43.854C112.041 43.9448 111.496 45.8515 111.496 48.2121C111.496 48.5753 111.496 50.1188 111.496 50.482C111.496 52.9335 111.678 55.4757 115.219 55.4757C119.759 55.4757 124.298 55.4757 128.929 55.4757C128.929 54.5678 128.929 53.6598 128.929 52.8427H115.31C115.037 52.8427 114.856 52.6611 114.856 52.4795V50.936C114.856 50.7544 115.037 50.5728 115.31 50.5728C117.761 50.5728 128.929 50.5728 128.929 50.5728C128.929 49.8464 128.929 49.1201 128.929 48.4845H128.384Z" fill="#231815"/>
      <path d="M149.812 43.6724H152.626V52.2071C152.626 52.3887 152.808 52.5703 152.99 52.5703H165.701V55.2033C165.701 55.2033 153.171 55.2033 153.08 55.2033C150.538 55.2033 149.721 54.2046 149.721 51.9347C149.812 49.4832 149.812 46.3962 149.812 43.6724Z" fill="#231815"/>
      <path d="M101.327 31.5967H102.689C105.141 31.5059 105.413 30.2347 105.413 28.0557C105.413 26.0582 104.868 24.6054 102.598 24.5146H90.7043H87.9805V36.2272H90.7043V31.6875H97.3324L102.235 36.2272H106.049C106.049 36.1364 101.327 31.5967 101.327 31.5967ZM90.7951 29.1452V26.9661C91.5215 26.9661 99.7838 26.9661 101.691 26.9661C101.872 26.9661 102.054 27.1477 102.054 27.3293V28.6912C102.054 28.8728 101.872 29.0544 101.691 29.0544L90.7951 29.1452Z" fill="#231815"/>
    </svg>
  </symbol>


  <symbol id="logolight">
    <svg width="239" height="63" viewBox="0 0 239 63" fill="none" xmlns="http://www.w3.org/2000/svg">
      <path d="M52.9 62.1H9.2C4.1 62.1 0 58 0 52.9V9.20001C0 4.10001 4.1 0 9.2 0H52.9C58 0 62.1 4.10001 62.1 9.20001V52.9C62.1 58 57.9 62.1 52.9 62.1Z" fill="white"/>
      <path d="M30.6 20.1C30.6 20.1 36.7 16.4 40.4 14.3C44.1 12.2 46.2 11.5 48.3 11.3C50.4 11.2 52.8 12.3 52.8 12.3L46.1 8.10001C46.1 8.10001 45.2 7.5 42.7 7.8C40.2 8.1 38.9 8.80001 37.3 9.60001C35.7 10.5 25 16.8 25 16.8L30.6 20.1Z" fill="#231815"/>
      <path d="M46.5996 17.3004C46.5996 17.3004 49.6996 21.6004 47.2996 29.2004C44.8996 36.8004 39.2996 41.1004 38.8996 41.4004C38.5996 41.7004 35.0996 43.7004 35.0996 43.7004L35.1996 49.7004C35.1996 49.7004 46.3996 45.8004 51.0996 35.0004C55.2996 25.5004 52.5996 20.4004 50.4996 18.2004C49.2996 16.9004 46.5996 17.3004 46.5996 17.3004Z" fill="#231815"/>
      <path d="M30.6 49.5996L25 46.2996V16.8996L30.6 20.0996V49.5996Z" fill="#231815"/>
      <path d="M13.4999 41L7.8999 37.6V8.3L13.3999 11.4L13.4999 41Z" fill="#231815"/>
      <path d="M7.89994 37.6C7.89994 37.6 6.49995 50 16.5999 54.5C22.3999 57.1 26.6999 55.6 28.6999 53.6C30.2999 52 30.4999 49.6 30.4999 49.6L24.8999 46.2C24.8999 46.2 24.8999 47.4 23.9999 48.3C22.9999 49.4 21.3999 50.5 17.7999 48.7C13.1999 46.3 13.3999 41 13.3999 41L7.89994 37.6Z" fill="#231815"/>
      <path d="M13.3999 11.4L17.8999 9.10001L12.7999 6.3L7.8999 8.3L13.3999 11.4Z" fill="#231815"/>
      <path d="M233.4 47.9004H235.6V48.4004H234.7V50.7004H234.2V48.4004H233.3L233.4 47.9004Z" fill="white"/>
      <path d="M236 47.9004H236.6L237.5 49.7004L238.4 47.9004H239V50.7004H238.5V48.7004L237.6 50.4004H237.3L236.4 48.7004V50.7004H236V47.9004Z" fill="white"/>
      <path d="M230.4 48.1001C230.4 49.1001 230.4 49.9001 230.4 50.9001C226.3 50.9001 222.2 50.9001 218.2 50.9001C215.2 50.9001 215.2 50.9001 215.2 53.8001C215.2 58.1001 215.2 58.1001 219.4 58.1001C221.6 58.1001 223.8 58.0001 225.9 58.1001C227.5 58.2001 228 57.6001 227.8 56.1001C227.7 55.2001 227.8 54.2001 227.8 53.1001C228.8 53.1001 229.7 53.1001 230.9 53.1001C230.9 54.8001 231 56.4001 230.9 58.1001C230.8 59.8001 229.7 60.8001 228.1 60.9001C223.7 61.0001 219.4 61.0001 215 60.9001C213 60.9001 212 59.6001 212 57.6001C212 55.6001 212 53.5001 212 51.5001C212 49.3001 213 48.2001 215.1 48.1001C220.2 48.0001 225.2 48.1001 230.4 48.1001Z" fill="white"/>
      <path d="M75.4002 26.9004H78.5002V36.5004C78.5002 36.7004 78.7002 36.9004 78.9002 36.9004H91.0002C91.2002 36.9004 91.4002 36.7004 91.4002 36.5004V26.9004H94.6002C94.6002 30.4004 94.7002 33.8004 94.6002 37.2004C94.6002 38.8004 93.5002 39.8004 92.0002 39.8004C87.2002 39.9004 82.9002 39.9004 78.0002 39.8004C76.4002 39.8004 75.4002 38.7004 75.4002 37.0004C75.3002 33.7004 75.4002 30.3004 75.4002 26.9004Z" fill="white"/>
      <path d="M145.2 48.1004H148.3V57.5004C148.3 57.7004 148.5 57.9004 148.7 57.9004H162.7V60.8004C162.7 60.8004 148.9 60.8004 148.8 60.8004C146 60.8004 145.1 59.7004 145.1 57.2004C145.2 54.5004 145.2 51.1004 145.2 48.1004Z" fill="white"/>
      <path d="M185.5 48.2004C186.5 48.2004 187.3 48.2004 188.4 48.2004C188.4 52.4004 188.4 56.6004 188.4 60.9004C187.5 60.9004 186.6 60.9004 185.5 60.9004C185.5 56.6004 185.5 52.5004 185.5 48.2004Z" fill="white"/>
      <path d="M138.5 33.1004C138.5 33.1004 139 32.3004 139 31.9004C139.6 29.5004 138.7 27.0004 136.3 26.9004C130.9 26.7004 125.5 26.8004 119.9 26.8004C119.9 31.1004 119.9 35.3004 119.9 39.7004C125 39.7004 130 39.7004 135 39.7004C138.9 39.7004 139.5 36.8004 138.9 34.1004C138.9 33.8004 138.5 33.1004 138.5 33.1004ZM135.2 36.8004L123.3 36.9004V34.5004C123.3 34.5004 133 34.5004 135.2 34.5004C135.4 34.5004 135.6 34.7004 135.6 34.9004V36.4004C135.6 36.6004 135.4 36.8004 135.2 36.8004ZM135.2 32.1004L123.3 32.2004V29.8004C123.3 29.8004 133 29.8004 135.2 29.8004C135.4 29.8004 135.6 30.0004 135.6 30.2004V31.7004C135.6 31.9004 135.4 32.1004 135.2 32.1004Z" fill="white"/>
      <path d="M155.9 29.3004C154.9 27.3004 153.4 26.9004 151.4 26.9004C149.3 26.9004 147.9 27.3004 146.9 29.3004C146.9 29.3004 143.1 36.1004 140.9 39.8004H144.8L150.2 30.0004C150.3 29.9004 150.4 29.8004 150.6 29.8004H152.4C152.5 29.8004 152.7 29.9004 152.8 30.0004L158.2 39.8004C158.2 39.8004 161.1 39.8004 162.1 39.8004C159.7 36.1004 155.8 29.3004 155.9 29.3004Z" fill="white"/>
      <path d="M182.5 26.9008H179.2C179.2 30.1008 179.2 33.3008 179.2 36.9008C179.2 36.9008 178.7 37.0008 178 36.4008C176.3 34.8008 172.5 30.2008 172 29.7008C172 29.7008 172 29.6008 171.9 29.6008C171.6 29.2008 171.3 28.9008 171.2 28.8008C170 27.6008 169.3 27.0008 167.1 26.8008H164.2C164.2 30.7008 164.2 35.8008 164.2 39.7008H167.5C167.5 36.5008 167.5 33.3008 167.5 29.7008C167.5 29.7008 168 29.6008 168.7 30.2008C170.4 31.8008 174.2 36.4008 174.7 36.9008C174.7 36.9008 174.7 37.0008 174.8 37.0008C175.1 37.4008 175.4 37.7008 175.5 37.8008C176.7 39.0008 177.4 39.6008 179.6 39.8008H182.5C182.5 35.9008 182.5 30.8008 182.5 26.9008Z" fill="white"/>
      <path d="M94.5001 50.6004C94.5001 49.1004 93.4001 48.2004 91.7001 48.2004C89.9001 48.2004 88.0001 48.2004 86.2001 48.2004C82.5001 48.2004 78.8001 48.2004 75.1001 48.2004C75.1001 52.5004 75.1001 56.6004 75.1001 60.9004C78.7001 60.9004 82.1001 60.9004 85.5001 60.9004C87.6001 60.9004 89.7001 60.9004 91.7001 60.9004C93.3001 60.9004 94.4001 59.9004 94.5001 58.5004C94.5001 57.9004 94.5001 51.2004 94.5001 50.6004ZM91.4001 52.3004V56.8004V57.7004C91.4001 57.9004 91.2001 58.1004 91.0001 58.1004H78.6001C78.4001 58.1004 78.2001 57.9004 78.2001 57.7004V51.5004C78.2001 51.3004 78.4001 51.1004 78.6001 51.1004H91.2001C91.4001 51.1004 91.4001 51.3004 91.4001 51.5004V52.3004Z" fill="white"/>
      <path d="M209.4 48.1H206.1C206.1 51.3 206.1 54.5 206.1 58.1C206.1 58.1 205.6 58.2 204.9 57.6C203.2 56 199.4 51.4 198.9 50.9C198.9 50.9 198.9 50.9 198.8 50.8C198.5 50.4 198.2 50.1 198.1 50C196.9 48.8 196.2 48.2 194 48H191.1C191.1 51.9 191.1 57 191.1 60.9H194.4C194.4 57.7 194.4 54.5 194.4 50.9C194.4 50.9 194.9 50.8 195.6 51.4C197.3 53 201.1 57.6 201.6 58.1C201.6 58.1 201.6 58.1 201.7 58.2C202 58.6 202.3 58.9 202.4 59C203.6 60.2 204.3 60.8 206.5 61H209.4C209.4 57.1 209.4 52 209.4 48.1Z" fill="white"/>
      <path d="M119 48.1004C118.5 50.8004 117.7 54.3004 117.1 57.0004C117 57.6004 116.8 58.0004 116.3 58.0004C115.7 58.0004 115.7 57.6004 115.4 57.0004C115.4 57.0004 113.4 51.7004 112.4 49.4004C112 48.5004 111.4 48.1004 110.5 48.1004C110.1 48.1004 109.7 48.1004 109.4 48.1004H109.3H109.2C108.9 48.1004 108.5 48.1004 108.1 48.1004C107.2 48.1004 106.6 48.5004 106.2 49.4004C105.2 51.7004 103.2 57.0004 103.2 57.0004C103 57.6004 102.9 58.0004 102.3 58.0004C101.8 58.0004 101.6 57.6004 101.5 57.0004C100.9 54.2004 100.2 50.8004 99.6002 48.1004C98.4002 48.1004 97.4002 48.1004 96.2002 48.1004C97.0002 51.6004 97.8002 54.9004 98.5002 58.1004C98.8002 59.5004 99.2002 60.9004 101 60.8004C101.8 60.8004 102.9 60.8004 103.7 60.8004C104.7 60.8004 105.2 60.1004 105.7 58.7004L108.6 51.0004C108.9 50.2004 109 50.1004 109.2 50.1004C109.4 50.1004 109.6 50.2004 109.8 51.0004L112.7 58.7004C113.2 60.1004 113.7 60.8004 114.7 60.8004C115.5 60.8004 116.5 60.8004 117.4 60.8004C119.2 60.8004 119.6 59.5004 119.9 58.1004C120.6 54.9004 121.4 51.5004 122.2 48.1004C121.2 48.1004 120.2 48.1004 119 48.1004Z" fill="white"/>
      <path d="M141.4 53.4008H127.1C126.8 53.4008 126.6 53.2008 126.6 53.0008V51.5008C126.6 51.3008 126.8 51.1008 127.1 51.1008C129.5 51.1008 138.8 51.1008 141.4 51.1008H142.1C142.1 50.1008 142.1 49.2008 142.1 48.2008C136.6 48.2008 131.2 48.1008 125.7 48.3008C123.4 48.4008 122.8 50.5008 122.8 53.1008C122.8 53.5008 122.8 55.2008 122.8 55.6008C122.8 58.3008 123 61.1008 126.9 61.1008C131.9 61.1008 136.9 61.1008 142 61.1008C142 60.1008 142 59.1008 142 58.2008H127C126.7 58.2008 126.5 58.0008 126.5 57.8008V56.1008C126.5 55.9008 126.7 55.7008 127 55.7008C129.7 55.7008 142 55.7008 142 55.7008C142 54.9008 142 54.1008 142 53.4008H141.4Z" fill="white"/>
      <path d="M165 48.1004H168.1V57.5004C168.1 57.7004 168.3 57.9004 168.5 57.9004H182.5V60.8004C182.5 60.8004 168.7 60.8004 168.6 60.8004C165.8 60.8004 164.9 59.7004 164.9 57.2004C165 54.5004 165 51.1004 165 48.1004Z" fill="white"/>
      <path d="M111.6 34.8H113.1C115.8 34.7 116.1 33.3 116.1 30.9C116.1 28.7 115.5 27.1 113 27H99.9004H96.9004V39.9H99.9004V34.9H107.2L112.6 39.9H116.8C116.8 39.8 111.6 34.8 111.6 34.8ZM100 32.1V29.7C100.8 29.7 109.9 29.7 112 29.7C112.2 29.7 112.4 29.9 112.4 30.1V31.6C112.4 31.8 112.2 32 112 32L100 32.1Z" fill="white"/>
    </svg>
  </symbol>

  <symbol id="mastercard">
    <svg width="49" height="29" viewBox="0 0 49 29" fill="none" xmlns="http://www.w3.org/2000/svg">
        <path d="M48.762 14.5C48.762 22.4564 42.2927 29 34.262 29C26.3056 29 19.762 22.4564 19.762 14.5C19.762 6.54359 26.2312 0 34.1876 0C42.2927 0 48.762 6.54359 48.762 14.5Z" fill="#808080"/>
        <path d="M29.3542 14.5744C29.3542 13.5333 29.2055 12.4923 29.0568 11.5256H20.1337C20.2081 11.0051 20.3568 10.559 20.5055 9.9641H28.4619C28.3132 9.44359 28.0901 8.92308 27.8671 8.40256H21.1004C21.3235 7.88205 21.6209 7.4359 21.9183 6.84103H27.0491C26.7517 6.32051 26.3799 5.8 25.9337 5.27949H23.1081C23.5542 4.75897 24.0004 4.31282 24.5953 3.79231C22.0671 1.41282 18.6465 0 14.8542 0C6.97218 0.223077 0.428589 6.54359 0.428589 14.5C0.428589 22.4564 6.89782 29 14.9286 29C18.7209 29 22.0671 27.5128 24.6696 25.2077C25.1901 24.7615 25.6363 24.241 26.1568 23.6462H23.1824C22.8106 23.2 22.4388 22.6795 22.1414 22.159H27.1978C27.4953 21.7128 27.7927 21.1923 28.0158 20.5974H21.2491C21.026 20.1513 20.8029 19.6308 20.6542 19.0359H28.6106C29.0568 17.6974 29.3542 16.2103 29.3542 14.5744Z" fill="#686868"/>
        <path d="M20.0617 18.2178L20.2848 16.8794C20.2104 16.8794 20.0617 16.9537 19.913 16.9537C19.3925 16.9537 19.3181 16.6563 19.3925 16.5076L19.8386 13.8307H20.6566L20.8797 12.3435H20.1361L20.2848 11.4512H18.7232C18.7232 11.4512 17.8309 16.5076 17.8309 17.1025C17.8309 17.9948 18.3514 18.4409 19.095 18.4409C19.5412 18.4409 19.913 18.2922 20.0617 18.2178Z" fill="white"/>
        <path d="M20.5819 15.7641C20.5819 17.9205 22.0691 18.4411 23.2588 18.4411C24.3742 18.4411 24.8947 18.218 24.8947 18.218L25.1922 16.7308C25.1922 16.7308 24.3742 17.1026 23.5563 17.1026C21.846 17.1026 22.1434 15.8385 22.1434 15.8385H25.2665C25.2665 15.8385 25.4896 14.8718 25.4896 14.4257C25.4896 13.459 24.9691 12.1949 23.2588 12.1949C21.7717 12.1205 20.5819 13.8308 20.5819 15.7641ZM23.2588 13.5334C24.0768 13.5334 23.9281 14.5 23.9281 14.5744H22.2178C22.2922 14.5 22.4409 13.5334 23.2588 13.5334Z" fill="white"/>
        <path d="M32.9981 18.218L33.2955 16.5078C33.2955 16.5078 32.552 16.8796 31.9571 16.8796C30.9161 16.8796 30.3955 16.0616 30.3955 15.095C30.3955 13.236 31.2878 12.2693 32.4032 12.2693C33.1468 12.2693 33.8161 12.7155 33.8161 12.7155L34.0391 11.0796C34.0391 11.0796 33.1468 10.7078 32.2545 10.7078C30.4699 10.7078 28.7596 12.2693 28.7596 15.1693C28.7596 17.1027 29.652 18.3668 31.5109 18.3668C32.1802 18.4411 32.9981 18.218 32.9981 18.218Z" fill="white"/>
        <path d="M11.6577 12.1201C10.6167 12.1201 9.79872 12.4176 9.79872 12.4176L9.57564 13.756C9.57564 13.756 10.2449 13.4586 11.2859 13.4586C11.8064 13.4586 12.2526 13.5329 12.2526 13.9791C12.2526 14.2765 12.1782 14.3509 12.1782 14.3509H11.509C10.1705 14.3509 8.75769 14.8714 8.75769 16.656C8.75769 18.0688 9.65 18.3663 10.2449 18.3663C11.2859 18.3663 11.8064 17.697 11.8808 17.697L11.8064 18.2919H13.0705L13.6654 14.0535C13.6654 12.1945 12.1782 12.1201 11.6577 12.1201ZM11.9551 15.5406C11.9551 15.7637 11.8064 17.0278 10.9141 17.0278C10.4679 17.0278 10.3192 16.656 10.3192 16.4329C10.3192 16.0611 10.5423 15.5406 11.732 15.5406C11.8808 15.5406 11.9551 15.5406 11.9551 15.5406Z" fill="white"/>
        <path d="M15.1528 18.3664C15.5246 18.3664 17.4579 18.4408 17.4579 16.3587C17.4579 14.4254 15.599 14.7972 15.599 14.0536C15.599 13.6818 15.8964 13.5331 16.4169 13.5331C16.64 13.5331 17.4579 13.6074 17.4579 13.6074L17.681 12.1946C17.681 12.1946 17.1605 12.0459 16.1938 12.0459C15.0784 12.0459 13.8887 12.4921 13.8887 14.0536C13.8887 15.8382 15.822 15.6895 15.822 16.3587C15.822 16.8049 15.3015 16.8792 14.9297 16.8792C14.2605 16.8792 13.5169 16.6562 13.5169 16.6562L13.2938 18.069C13.4425 18.2177 13.8887 18.3664 15.1528 18.3664Z" fill="white"/>
        <path d="M45.7855 10.9307L45.4881 13.0127C45.4881 13.0127 44.8932 12.2691 44.0009 12.2691C42.5881 12.2691 41.3983 13.9794 41.3983 15.9871C41.3983 17.2512 41.9932 18.5153 43.3317 18.5153C44.224 18.5153 44.8188 17.9204 44.8188 17.9204L44.7445 18.4409H46.306L47.4214 11.0794L45.7855 10.9307ZM45.0419 14.946C45.0419 15.764 44.6701 16.8794 43.7778 16.8794C43.2573 16.8794 42.9599 16.4332 42.9599 15.6153C42.9599 14.3512 43.4804 13.6076 44.224 13.6076C44.7445 13.6819 45.0419 14.0537 45.0419 14.946Z" fill="white"/>
        <path d="M3.25366 18.2922L4.14597 12.7896L4.29468 18.2922H5.33571L7.3434 12.7896L6.52545 18.2922H8.16135L9.42545 10.9307H6.89725L5.33571 15.4666L5.26135 10.9307H3.03058L1.76648 18.2922H3.25366Z" fill="white"/>
        <path d="M27.05 18.2925C27.4961 15.7643 27.5705 13.6823 28.6859 14.0541C28.8346 13.0874 29.0577 12.6412 29.2064 12.2694H28.909C28.2397 12.2694 27.6448 13.1617 27.6448 13.1617L27.7936 12.3438H26.3064L25.3397 18.2925H27.05Z" fill="white"/>
        <path d="M36.5688 12.1201C35.5278 12.1201 34.7098 12.4176 34.7098 12.4176L34.4868 13.756C34.4868 13.756 35.156 13.4586 36.197 13.4586C36.7175 13.4586 37.1637 13.5329 37.1637 13.9791C37.1637 14.2765 37.0893 14.3509 37.0893 14.3509H36.4201C35.0816 14.3509 33.6688 14.8714 33.6688 16.656C33.6688 18.0688 34.5611 18.3663 35.156 18.3663C36.197 18.3663 36.7175 17.697 36.7919 17.697L36.7175 18.2919H38.1304L38.7252 14.0535C38.7252 12.1945 37.0893 12.1201 36.5688 12.1201ZM36.9406 15.5406C36.9406 15.7637 36.7919 17.0278 35.8996 17.0278C35.4534 17.0278 35.3047 16.656 35.3047 16.4329C35.3047 16.0611 35.5278 15.5406 36.7175 15.5406C36.8663 15.5406 36.8663 15.5406 36.9406 15.5406Z" fill="white"/>
        <path d="M39.9155 18.2925C40.3616 15.7643 40.436 13.6823 41.5514 14.0541C41.7001 13.0874 41.9231 12.6412 42.0719 12.2694H41.7744C41.1052 12.2694 40.5103 13.1617 40.5103 13.1617L40.659 12.3438H39.1719L38.2052 18.2925H39.9155Z" fill="white"/>
    </svg>

  </symbol>

</svg>